<?xml version="1.0" standalone="no"?>
<!DOCTYPE svg PUBLIC "-//W3C//DTD SVG 20010904//EN"
 "http://www.w3.org/TR/2001/REC-SVG-20010904/DTD/svg10.dtd">
<svg version="1.0" xmlns="http://www.w3.org/2000/svg"
 width="561.000000pt" height="444.000000pt" viewBox="0 0 561.000000 444.000000"
 preserveAspectRatio="xMidYMid meet">

<g transform="translate(0.000000,444.000000) scale(0.100000,-0.100000)"
fill="#ffffff" stroke="none">
<path d="M3426 3168 c-7 -18 -37 -89 -65 -158 -29 -69 -61 -145 -73 -169 l-21
-44 32 -29 c17 -15 35 -28 39 -28 5 0 19 25 31 56 13 30 27 52 31 47 4 -4 25
-51 46 -103 55 -135 53 -132 157 -244 52 -55 127 -140 168 -187 133 -155 142
-164 136 -149 -3 8 -33 80 -67 160 -34 80 -93 222 -132 315 -89 216 -204 490
-223 533 -8 17 -21 32 -30 32 -8 0 -21 -15 -29 -32z m-22 -189 c-3 -6 0 -15 7
-20 9 -6 10 -9 2 -9 -15 0 -26 17 -18 30 3 6 8 10 11 10 3 0 2 -5 -2 -11z
m-40 -98 c-5 -6 -34 20 -34 30 0 5 8 1 18 -8 10 -10 17 -20 16 -22z"/>
<path d="M1360 3066 c0 -12 11 -16 47 -16 66 0 131 -34 149 -77 12 -28 14
-138 14 -630 0 -562 -1 -598 -19 -638 -23 -53 -40 -62 -125 -71 -46 -5 -66
-11 -66 -20 0 -11 39 -14 210 -14 188 0 210 2 219 18 10 16 10 16 11 0 0 -13
8 -18 26 -18 23 0 25 2 13 17 -12 14 -10 14 20 -2 49 -25 329 -17 449 14 99
25 222 85 301 145 101 78 192 222 225 358 41 164 27 392 -32 522 -25 56 -29
60 -100 93 -83 39 -272 105 -272 95 0 -3 13 -20 29 -37 43 -44 101 -157 123
-238 40 -144 35 -358 -13 -499 -84 -249 -319 -410 -580 -396 -68 4 -76 3 -72
-13 3 -9 1 -19 -4 -22 -5 -3 -9 4 -9 16 1 16 -5 22 -19 22 -14 0 -20 -6 -19
-22 0 -12 -4 -19 -9 -16 -5 3 -6 16 -3 28 5 21 2 24 -34 30 l-40 7 0 633 0
634 58 8 c107 15 338 8 468 -15 252 -44 422 -114 745 -307 10 -5 64 -47 121
-91 190 -150 422 -400 555 -595 53 -79 67 -107 71 -147 4 -45 2 -50 -28 -75
-17 -15 -49 -30 -71 -33 -29 -5 -39 -11 -39 -25 0 -18 13 -19 295 -19 282 0
295 1 295 19 0 12 -9 20 -27 24 -56 12 -150 106 -407 406 -281 327 -411 460
-546 560 -78 59 -84 61 -92 42 -10 -28 -16 -27 -11 2 3 17 -6 29 -44 54 -136
90 -358 178 -589 234 -235 56 -294 61 -751 66 -383 5 -423 3 -423 -11z m1780
-310 c0 -2 -7 -7 -16 -10 -8 -3 -12 -2 -9 4 6 10 25 14 25 6z m-60 -64 c0 -8
-1 -13 -3 -11 -1 2 -9 12 -16 22 -12 15 -12 17 3 11 9 -3 16 -13 16 -22z m65
0 c-3 -3 0 -11 6 -19 17 -20 5 -16 -14 5 -15 16 -15 19 -2 19 8 0 13 -3 10 -5z
m-320 -232 c9 0 11 -8 8 -22 -8 -32 -23 -48 -42 -47 -11 0 -9 3 7 9 29 12 28
39 -3 69 -14 13 -25 28 -25 33 0 6 9 -1 21 -16 11 -14 26 -26 34 -26z"/>
<path d="M3097 2397 c-20 -45 -57 -131 -83 -192 -25 -60 -54 -128 -64 -150 -9
-22 -37 -85 -60 -140 -52 -120 -102 -175 -174 -194 -35 -9 -46 -16 -46 -31 0
-19 7 -20 230 -20 220 0 230 1 230 19 0 15 -10 21 -42 26 -107 18 -138 53
-118 133 10 39 124 317 184 447 45 97 50 124 30 147 -42 45 -48 42 -87 -45z"/>
</g>
</svg>
