<?xml version="1.0" standalone="no"?>
<!DOCTYPE svg PUBLIC "-//W3C//DTD SVG 20010904//EN"
 "http://www.w3.org/TR/2001/REC-SVG-20010904/DTD/svg10.dtd">
<svg version="1.0" xmlns="http://www.w3.org/2000/svg"
 width="280.000000pt" height="100.000000pt" viewBox="155 -0 480.000000 20.000000"
 preserveAspectRatio="xMidYMid meet">
<metadata>
Created by potrace 1.16, written by Peter Selinger 2001-2019
</metadata>
<g transform="translate(0.000000,109.000000) scale(0.100000,-0.100000)"
fill="#ffffff" stroke="none">
<path d="M2048 1053 c20 -4 22 -10 22 -79 l0 -74 -27 7 c-40 10 -82 6 -109
-12 -50 -33 -56 -174 -8 -222 28 -27 88 -31 122 -7 20 14 22 14 22 0 0 -13 12
-16 63 -15 34 0 56 3 50 6 -10 3 -13 54 -13 204 l0 199 -72 -1 c-40 -1 -63 -4
-50 -6z m12 -179 c15 -38 12 -167 -3 -188 -22 -30 -51 -16 -59 29 -7 38 -1
161 9 178 10 17 44 6 53 -19z"/>
<path d="M4443 1053 c15 -4 17 -22 17 -198 0 -176 -2 -194 -17 -198 -10 -3 20
-5 67 -5 47 0 77 2 68 5 -16 4 -18 22 -18 204 l0 199 -67 -1 c-38 -1 -60 -3
-50 -6z"/>
<path d="M1615 850 c-43 -115 -76 -191 -85 -194 -8 -2 5 -4 30 -3 25 0 35 2
23 4 -28 5 -28 0 -2 68 l21 56 55 -3 c54 -3 56 -4 68 -38 27 -79 27 -78 3 -83
-13 -2 20 -4 72 -4 52 -1 88 1 80 3 -10 3 -42 75 -85 194 -92 252 -88 252
-180 0z"/>
<path d="M2768 846 l3 -184 -23 -5 c-13 -2 21 -5 74 -6 125 -1 190 13 234 51
41 36 58 91 52 171 -7 93 -60 147 -150 153 -47 3 -49 3 -22 -6 45 -14 64 -67
64 -175 0 -131 -31 -185 -106 -185 l-25 0 3 185 3 185 -55 0 -55 0 3 -184z"/>
<path d="M2453 905 c-36 -15 -53 -42 -53 -82 1 -42 23 -63 92 -87 54 -19 63
-25 63 -46 0 -17 -7 -26 -25 -31 l-25 -7 26 -1 c39 -2 72 39 72 90 0 52 -20
71 -97 93 -75 22 -81 49 -15 75 13 5 17 10 9 10 -8 0 -29 -6 -47 -14z"/>
<path d="M3269 901 c16 -16 21 -34 21 -70 l0 -48 -50 -6 c-74 -9 -90 -21 -90
-67 0 -29 5 -42 19 -50 25 -13 98 -13 106 0 3 6 -1 10 -10 10 -25 0 -17 93 8
98 16 3 18 -2 16 -43 -4 -57 14 -75 78 -75 34 0 45 5 54 23 11 19 10 20 -3 10
-23 -20 -28 -6 -28 78 0 120 -12 140 -99 154 l-43 7 21 -21z"/>
<path d="M3630 913 c-8 -3 -23 -12 -32 -21 -16 -14 -18 -13 -18 1 0 14 -11 17
-67 16 -38 -1 -60 -3 -50 -6 15 -4 17 -19 17 -123 0 -104 -2 -119 -17 -123
-10 -3 18 -5 62 -5 44 0 74 2 68 5 -16 6 -18 185 -3 214 6 10 20 19 30 19 19
0 20 -7 20 -114 0 -82 -4 -116 -12 -119 -7 -3 23 -5 67 -5 44 0 72 2 63 5 -16
4 -18 18 -18 108 0 83 -3 107 -17 123 -19 21 -68 35 -93 25z"/>
<path d="M4259 901 c16 -16 21 -34 21 -70 l0 -48 -50 -6 c-74 -9 -90 -21 -90
-67 0 -29 5 -42 19 -50 25 -13 98 -13 106 0 3 6 -1 10 -10 10 -25 0 -17 93 8
98 16 3 18 -2 16 -43 -4 -57 14 -75 78 -75 34 0 45 5 54 23 11 19 10 20 -3 10
-23 -20 -28 -6 -28 78 0 120 -12 140 -99 154 l-43 7 21 -21z"/>
<path d="M2223 903 c15 -4 17 -19 17 -123 0 -104 -2 -119 -17 -123 -10 -3 20
-5 67 -5 47 0 77 2 68 5 -16 4 -18 19 -18 129 l0 124 -67 -1 c-38 -1 -60 -3
-50 -6z"/>
<path d="M3798 903 c21 -4 22 -8 22 -123 0 -104 -2 -119 -17 -123 -10 -3 18
-5 62 -5 44 0 72 2 63 5 -16 4 -18 19 -18 129 l0 124 -67 -1 c-38 -1 -58 -4
-45 -6z"/>
<path d="M3973 903 c16 -4 17 -19 15 -185 -3 -158 -5 -182 -20 -192 -27 -17
-50 10 -25 29 11 8 17 23 15 37 -2 18 -10 24 -35 26 -27 3 -35 -1 -44 -22 -34
-75 100 -115 165 -50 34 35 46 96 46 238 l0 126 -67 -1 c-38 -1 -60 -3 -50 -6z"/>
<path d="M4623 903 c15 -4 17 -19 17 -123 0 -104 -2 -119 -17 -123 -10 -3 20
-5 67 -5 47 0 77 2 68 5 -16 4 -18 19 -18 129 l0 124 -67 -1 c-38 -1 -60 -3
-50 -6z"/>
</g>
</svg>
